<?xml version="1.0" encoding="utf-8"?>
<!-- Generator: Adobe Illustrator 24.1.1, SVG Export Plug-In . SVG Version: 6.00 Build 0)  -->
<svg version="1.1" baseProfile="tiny" id="Capa_1" xmlns="http://www.w3.org/2000/svg" xmlns:xlink="http://www.w3.org/1999/xlink"
	 x="0px" y="0px" viewBox="0 0 302.9 53" xml:space="preserve">
<g id="XMLID_8_">
	<g id="XMLID_1_">
		<path id="XMLID_205_" d="M277.2,30.3c-0.5,2.7-2.4,4-4.9,4.5c-1,0.2-1.9,0.3-2.9,0.3c-4.3,0-8.7,0-13,0c-0.2,0-0.3,0-0.6,0
			c0-1.4,0-2.7,0-4.1c0.3,0,0.5,0,0.8,0c4.1,0,8.3,0,12.4,0c0.3,0,0.7-0.1,1-0.1c1-0.2,1.5-0.9,1.4-1.8c-0.1-1-0.6-1.6-1.7-1.6
			c-2.7-0.1-5.4,0-8.1-0.2c-1.3-0.1-2.5-0.4-3.7-0.8c-2-0.7-2.9-2.3-3-4.3c-0.1-0.9,0-1.8,0.2-2.7c0.4-1.8,1.5-3.1,3.2-3.6
			c1.3-0.4,2.7-0.7,4.1-0.8c4.5-0.1,9,0,13.6,0c0.1,0,0.1,0,0.2,0c0,1.3,0,2.7,0,4.1c-0.2,0-0.4,0-0.7,0c-3.8,0-7.6,0-11.4,0
			c-0.7,0-1.4,0.1-2.1,0.3c-1,0.3-1.4,0.9-1.3,2.1c0.1,0.8,0.6,1.3,1.5,1.4c0.4,0.1,0.9,0.1,1.3,0.1c2.4,0,4.8,0,7.2,0.1
			c1.1,0,2.2,0.2,3.2,0.5c1.8,0.5,2.8,1.7,3.2,3.5C277.4,29,277.2,30.3,277.2,30.3z"/>
		<path id="XMLID_200_" d="M203.7,25c1.4,0.6,2.5,1.4,2.9,2.9c0.7,2.3,0,5.4-3.1,6.4c-1.3,0.4-2.7,0.7-4.1,0.8
			c-4.9,0.1-9.7,0-14.6,0c-0.1,0-0.2,0-0.4,0c0-6.6,0-13.3,0-20c0.2,0,0.4,0,0.6,0c4.4,0,8.7,0,13.1,0c1.4,0,2.8,0.1,4.1,0.4
			c1,0.2,2,0.7,2.8,1.3c2.6,2,2.4,5.7-0.3,7.6C204.4,24.6,204.1,24.8,203.7,25z M190.4,30.9c0.2,0,0.3,0.1,0.4,0.1c2.5,0,5,0,7.5,0
			c1.1,0,1.8-0.5,2-1.3c0.3-1.3-0.3-2.3-1.7-2.4c-2.6-0.1-5.2-0.1-7.8-0.1c-0.1,0-0.4,0.2-0.4,0.3C190.4,28.6,190.4,29.7,190.4,30.9
			z M190.4,23c0.3,0,0.5,0,0.7,0c1.9,0,3.8,0,5.7,0c0.6,0,1.2,0,1.8-0.1c1-0.1,1.6-0.7,1.7-1.6c0.1-1.2-0.5-1.9-1.7-1.9
			c-2.7-0.1-5.4-0.1-8.1-0.1c-0.1,0-0.1,0.1-0.2,0.1C190.4,20.5,190.4,21.7,190.4,23z"/>
		<path id="XMLID_197_" d="M97.2,27.1c0,2.7,0,5.3,0,8c-1.9,0-3.8,0-5.7,0c0-6.6,0-13.3,0-19.9c0.1,0,0.2-0.1,0.2-0.1
			c4.8,0,9.5,0,14.3,0.1c1.9,0,3.5,0.7,4.7,2.2c0.7,0.9,1.1,1.8,1.1,3c0,0.7,0.1,1.5-0.1,2.2c-0.3,1.9-1.5,3.1-3.2,3.9
			c-0.2,0.1-0.4,0.2-0.6,0.3c2,2.8,3.9,5.5,5.9,8.2c-0.1,0-0.1,0.1-0.2,0.1c-2,0-3.9,0-5.9,0c-0.2,0-0.5-0.2-0.6-0.4
			c-1.5-2.3-3-4.7-4.5-7c-0.3-0.4-0.6-0.6-1-0.6C100.2,27.1,98.8,27.1,97.2,27.1z M97.1,23.1c0.5,0,1,0,1.4,0c1.9,0,3.8,0,5.8,0
			c1.4,0,2.1-0.7,2.1-1.9c0-1.3-0.7-2.1-2.2-2.1c-2,0-4.1,0-6.1,0c-0.3,0-0.7,0-1.1,0C97.1,20.4,97.1,21.7,97.1,23.1z"/>
		<path id="XMLID_194_" d="M224.9,26.7c2,2.8,3.9,5.5,5.9,8.3c-0.1,0-0.2,0.1-0.3,0.1c-1.9,0-3.8,0-5.7,0c-0.2,0-0.6-0.2-0.7-0.4
			c-1.5-2.3-3-4.7-4.5-7.1c-0.2-0.4-0.5-0.5-0.9-0.5c-1.5,0-2.9,0-4.5,0c0,2.7,0,5.3,0,8c-2,0-3.8,0-5.7,0c0-6.7,0-13.3,0-19.9
			c0.1,0,0.2-0.1,0.3-0.1c4.7,0,9.4,0.1,14.2,0.1c1.3,0,2.5,0.4,3.6,1.2c1.4,1,2.2,2.4,2.2,4.2c0,0.8,0,1.7-0.2,2.5
			c-0.4,1.7-1.6,2.7-3.1,3.4C225.3,26.6,225.1,26.6,224.9,26.7z M214.1,19.1c0,1.4,0,2.7,0,4c2.5,0,4.9,0,7.3,0c1.2,0,1.9-0.8,2-1.9
			c0-1.2-0.7-2-1.9-2C219.1,19,216.6,19.1,214.1,19.1z"/>
		<path id="XMLID_193_" d="M166.5,27.1c0,2.6,0,5.2,0,7.9c-2,0-4,0-6,0c0-6.6,0-13.3,0-20c2,0,4,0,6,0c0,2.6,0,5.3,0,8.1
			c0.4-0.2,0.8-0.3,1-0.5c2.5-2.4,5-4.8,7.5-7.2c0.4-0.4,0.7-0.5,1.3-0.5c1.9,0,3.9,0,5.8,0c0.2,0,0.4,0,0.8,0
			c-3.5,3.3-6.8,6.5-10.2,9.8c3.4,3.4,6.7,6.7,10.1,10.1c0,0.1-0.1,0.1-0.1,0.2c-0.4,0-0.8,0-1.2,0c-1.8,0-3.7,0-5.5,0
			c-0.5,0-0.8-0.1-1.2-0.5c-2.3-2.4-4.6-4.7-6.9-7.1C167.4,27.1,167,27,166.5,27.1z"/>
		<path id="XMLID_190_" d="M125,35.2c-1.5,0-3.1-0.3-4.6-0.7c-3.7-0.9-5.9-3.6-6.3-7.3c-0.2-1.7-0.2-3.4,0.1-5.1
			c0.6-3.3,2.5-5.4,5.7-6.4c3.5-1,7.1-1,10.6,0c3.4,1.1,5.3,3.5,5.7,7c0.2,1.8,0.2,3.6-0.2,5.4c-0.8,3.6-3.2,5.7-6.8,6.4
			C127.9,34.9,126.6,35.2,125,35.2z M119.8,24.8c0.1,0.7,0.1,1.2,0.2,1.8c0.3,1.9,1,3.5,3.1,4c0.9,0.2,1.8,0.3,2.6,0.3
			c2.7-0.2,4.1-1.4,4.6-4.1c0.3-1.5,0.2-3-0.1-4.4c-0.4-1.8-1.5-2.9-3.3-3.2c-0.7-0.1-1.5-0.2-2.3-0.2c-2.6,0.1-4.1,1.4-4.6,3.9
			C119.9,23.6,119.8,24.3,119.8,24.8z"/>
		<path id="XMLID_2_" d="M241.9,35.2c-1.5,0-3.1-0.3-4.6-0.7c-3.7-0.9-5.9-3.6-6.3-7.3c-0.2-1.7-0.2-3.4,0.1-5.1
			c0.6-3.3,2.5-5.4,5.7-6.4c3.5-1,7.1-1,10.6,0c3.4,1.1,5.3,3.5,5.7,7c0.2,1.8,0.2,3.6-0.2,5.4c-0.8,3.6-3.2,5.7-6.8,6.4
			C244.8,34.9,243.5,35.2,241.9,35.2z M236.7,24.8c0.1,0.7,0.1,1.2,0.2,1.8c0.3,1.9,1,3.5,3.1,4c0.9,0.2,1.8,0.3,2.6,0.3
			c2.7-0.2,4.1-1.4,4.6-4.1c0.3-1.5,0.2-3-0.1-4.4c-0.4-1.8-1.5-2.9-3.3-3.2c-0.7-0.1-1.5-0.2-2.3-0.2c-2.6,0.1-4.1,1.4-4.6,3.9
			C236.8,23.6,236.8,24.3,236.7,24.8z"/>
		<path id="XMLID_186_" d="M158.7,31c0,1.4,0,2.7,0,4c-0.1,0-0.3,0-0.4,0c-3.1,0-6.3,0-9.4,0c-2.4,0-4.7-0.5-6.8-1.7
			c-2.4-1.5-3.7-3.6-4.1-6.4c-0.2-1.7-0.1-3.4,0.3-5.1c0.9-3.4,3.3-5.4,6.6-6.2c1.6-0.4,3.4-0.6,5-0.6c2.7-0.1,5.5,0,8.2,0
			c0.1,0,0.3,0,0.5,0c0,1.3,0,2.6,0,4c-0.2,0-0.5,0-0.7,0c-2.4,0-4.9,0-7.3,0c-0.8,0-1.5,0.1-2.3,0.2c-1.6,0.3-2.6,1.3-3.1,2.8
			c-0.5,1.7-0.6,3.4-0.3,5.1c0.4,2.3,1.6,3.5,4.1,3.6c2.7,0.1,5.5,0.1,8.3,0.1C157.8,31,158.2,31,158.7,31z"/>
	</g>
	<g id="XMLID_7_">
		<circle id="XMLID_6_" fill="#0C0A0A" cx="54.6" cy="26" r="25.8"/>
		<g id="XMLID_5_">
			<path id="XMLID_60_" fill="#FFFFFF" d="M64.5,24.8c2.1,1.7,2.9,3.8,2.4,6.5c-2.5-3-4.9-5.9-7.3-8.9c0.6,0,1,0,1.5,0
				c1.6,0,2.7-1,2.7-2.4c0-1.4-1.1-2.4-2.6-2.4c-3.7,0-7.4,0-11.1,0c-0.4,0-0.6,0-0.7,0.5c-0.2,1.3-0.6,2.5-0.9,3.8
				c-0.1,0.3,0,0.6,0.2,0.9c1,1.2,2,2.4,3.1,3.7c-1.1,0-2,0-2.9,0c-1.3,0-1.3,0-1.6,1.3c-0.3,1.4-0.6,2.8-0.9,4.2c2.2,0,4.3,0,6.4,0
				c1.1,0,2.2,0,3.3,0c0.2,0,0.4,0,0.6,0.2c1,1.2,2.1,2.5,3.1,3.7c-0.2,0.2-0.3,0.1-0.5,0.1c-6,0-11.9,0-17.9,0
				c-0.5,0-0.7,0-0.5-0.6c1.5-6.8,3-13.6,4.5-20.4c0.1-0.5,0.3-0.7,0.8-0.7c5.7,0,11.5,0,17.2,0c2.3,0,4,1.1,4.9,3.1
				c0.9,2.1,0.5,4-1,5.7C66.5,24,65.6,24.4,64.5,24.8z"/>
			<path id="XMLID_59_" fill="#49A246" d="M51.2,22.4c1.9,0,3.6,0,5.4,0c0.3,0,0.4,0.2,0.5,0.4c3.6,4.3,7.1,8.6,10.7,12.9
				c0.1,0.1,0.1,0.2,0.2,0.4c-1.8,0-3.6,0-5.3,0c-0.3,0-0.4-0.3-0.6-0.5c-3-3.6-6-7.2-9-10.9C52.5,23.9,51.9,23.2,51.2,22.4z"/>
		</g>
	</g>
</g>
</svg>
